<svg xmlns="http://www.w3.org/2000/svg" viewBox="0 0 500 500" width="500" height="500">

  <!-- ===== STICKER WHITE OUTLINE LAYER ===== -->
  <!-- Body outline -->
  <circle cx="250" cy="300" r="118" fill="white"/>
  <!-- Hat brim outline -->
  <rect x="158" y="188" width="186" height="28" rx="14" fill="white"/>
  <!-- Hat top outline -->
  <rect x="180" y="118" width="142" height="80" rx="20" fill="white"/>
  <!-- Left arm outline -->
  <ellipse cx="140" cy="310" rx="44" ry="34" fill="white"/>
  <!-- Right arm outline -->
  <ellipse cx="362" cy="298" rx="44" ry="36" fill="white"/>
  <!-- Sample tube outline -->
  <rect x="370" y="236" width="36" height="96" rx="18" fill="white"/>
  <!-- Feet outline -->
  <ellipse cx="218" cy="416" rx="48" ry="24" fill="white"/>
  <ellipse cx="288" cy="416" rx="48" ry="24" fill="white"/>

  <!-- ===== MAIN CHARACTER ===== -->

  <!-- Feet / base -->
  <ellipse cx="216" cy="414" rx="42" ry="20" fill="#7BAED4"/>
  <ellipse cx="286" cy="414" rx="42" ry="20" fill="#7BAED4"/>

  <!-- Body (smaller circle) -->
  <circle cx="250" cy="298" r="110" fill="#F5F8FF"/>
  <!-- Body subtle shadow at bottom -->
  <ellipse cx="250" cy="388" rx="82" ry="18" fill="#D8E8F5" opacity="0.5"/>

  <!-- Left arm -->
  <ellipse cx="142" cy="308" rx="36" ry="28" fill="#F5F8FF"/>

  <!-- Right arm (holding tube) -->
  <ellipse cx="360" cy="296" rx="36" ry="30" fill="#F5F8FF"/>

  <!-- Core sample tube (right side) -->
  <rect x="372" y="230" width="30" height="92" rx="15" fill="#E0EEF8" stroke="#AACCDD" stroke-width="3"/>
  <!-- Green layer -->
  <rect x="375" y="236" width="24" height="20" rx="4" fill="#6AAF3D"/>
  <!-- Brown layer -->
  <rect x="375" y="256" width="24" height="20" rx="2" fill="#A0693A"/>
  <!-- Gray layer -->
  <rect x="375" y="276" width="24" height="38" rx="4" fill="#8899AA"/>
  <!-- Tube cap top -->
  <rect x="368" y="224" width="38" height="13" rx="6" fill="#7BAED4"/>
  <!-- Tube shine -->
  <rect x="378" y="236" width="6" height="70" rx="3" fill="white" opacity="0.35"/>

  <!-- Hat top -->
  <rect x="183" y="122" width="136" height="74" rx="18" fill="#7BAED4"/>
  <!-- Hat highlight -->
  <ellipse cx="251" cy="136" rx="50" ry="15" fill="#9CCCE8" opacity="0.5"/>

  <!-- Hat brim -->
  <rect x="162" y="190" width="178" height="22" rx="11" fill="#5A96C0"/>

  <!-- Gold badge -->
  <circle cx="251" cy="147" r="11" fill="#FFD700"/>
  <circle cx="251" cy="147" r="7" fill="#FFF0A0"/>

  <!-- Eyes -->
  <circle cx="222" cy="274" r="20" fill="white"/>
  <circle cx="278" cy="274" r="20" fill="white"/>
  <!-- Pupils -->
  <circle cx="224" cy="276" r="12" fill="#1A1A2E"/>
  <circle cx="280" cy="276" r="12" fill="#1A1A2E"/>
  <!-- Eye shine -->
  <circle cx="219" cy="271" r="4" fill="white"/>
  <circle cx="275" cy="271" r="4" fill="white"/>

  <!-- Smile -->
  <path d="M224 308 Q250 328 276 308" stroke="#333" stroke-width="5" stroke-linecap="round" fill="none"/>

  <!-- Cheeks -->
  <ellipse cx="198" cy="300" rx="22" ry="15" fill="#FFAAAA" opacity="0.55"/>
  <ellipse cx="302" cy="300" rx="22" ry="15" fill="#FFAAAA" opacity="0.55"/>

</svg>
